<?xml version="1.0" encoding="UTF-8"?>
<svg version="1.1" xmlns="http://www.w3.org/2000/svg" width="62" height="62">
<path d="M0 0 C6.98591184 5.35159301 13.3246964 11.00869168 15 20 C15.65875389 31.70554988 15.57527747 40.05163296 7.75 49.25 C2.04867783 55.2850581 -3.20399981 58.73009523 -11.609375 59.203125 C-24.04468943 59.44451463 -30.57453265 58.05631708 -39.79296875 49.34765625 C-46.96312772 41.72063759 -47.38864214 33.92060829 -47.19921875 23.9140625 C-46.70073038 14.12023214 -42.07268681 8.6490317 -35 2 C-26.25346388 -4.49596542 -9.37605192 -6.21800933 0 0 Z " fill="#020202" transform="translate(47,3)"/>
<path d="M0 0 C2.21582031 -0.00292969 2.21582031 -0.00292969 5.84863281 0.56738281 C7.8965313 4.09404566 9.90690117 7.64074997 11.91113281 11.19238281 C12.49185547 12.19140625 13.07257812 13.19042969 13.67089844 14.21972656 C14.21552734 15.19296875 14.76015625 16.16621094 15.32128906 17.16894531 C15.82926025 18.0592041 16.33723145 18.94946289 16.8605957 19.86669922 C18.08144522 23.20374823 17.77191876 25.17076445 16.84863281 28.56738281 C15.28613281 30.44238281 15.28613281 30.44238281 13.84863281 31.56738281 C12.3828098 29.19673078 10.92593131 26.82130121 9.47363281 24.44238281 C9.06113281 23.77722656 8.64863281 23.11207031 8.22363281 22.42675781 C5.87546318 18.56364003 4.0921641 14.95390527 2.84863281 10.56738281 C2.18863281 10.56738281 1.52863281 10.56738281 0.84863281 10.56738281 C0.58050781 11.45425781 0.31238281 12.34113281 0.03613281 13.25488281 C-1.06847538 16.33615829 -2.37985863 18.82959686 -4.15136719 21.56738281 C-1.51136719 21.56738281 1.12863281 21.56738281 3.84863281 21.56738281 C0.23611962 25.65109338 -4.28644979 29.10356645 -9.15136719 31.56738281 C-12.15136719 30.56738281 -12.15136719 30.56738281 -13.96386719 28.37988281 C-15.58223215 24.54691316 -14.71172969 23.41802529 -13.15136719 19.56738281 C-11.56073379 16.20607848 -9.8211637 12.94851638 -8.02636719 9.69238281 C-7.57777344 8.81324219 -7.12917969 7.93410156 -6.66699219 7.02832031 C-3.23408913 0.85293045 -3.23408913 0.85293045 0 0 Z " fill="#F3F3F3" transform="translate(30.1513671875,15.4326171875)"/>
<path d="M0 0 C0.66 0 1.32 0 2 0 C3.98 3.96 5.96 7.92 8 12 C7.34 12 6.68 12 6 12 C5.67 12.66 5.34 13.32 5 14 C5 13.34 5 12.68 5 12 C1.7 11.67 -1.6 11.34 -5 11 C-3.55049545 7.2089881 -1.84827434 3.6125362 0 0 Z " fill="#171717" transform="translate(31,26)"/>
<path d="M0 0 C0.99 0.33 1.98 0.66 3 1 C2.01 2.98 1.02 4.96 0 7 C-0.99 6.01 -1.98 5.02 -3 4 C-2.67 3.01 -2.34 2.02 -2 1 C-1.34 1.33 -0.68 1.66 0 2 C0 1.34 0 0.68 0 0 Z " fill="#E5E5E5" transform="translate(45,40)"/>
</svg>
