<?xml version="1.0" encoding="UTF-8"?>
<!DOCTYPE svg PUBLIC "-//W3C//DTD SVG 1.1//EN" "http://www.w3.org/Graphics/SVG/1.1/DTD/svg11.dtd">
<!-- Creator: CorelDRAW 2021 (64-Bit) -->
<svg xmlns="http://www.w3.org/2000/svg" xml:space="preserve" width="374px" height="51px" version="1.1" shape-rendering="geometricPrecision" text-rendering="geometricPrecision" image-rendering="optimizeQuality" fill-rule="evenodd" clip-rule="evenodd"
viewBox="0 0 37577 5114"
 xmlns:xlink="http://www.w3.org/1999/xlink"
 xmlns:xodm="http://www.corel.com/coreldraw/odm/2003">
 <g id="Layer_x0020_1">
  <metadata id="CorelCorpID_0Corel-Layer"/>
  <path fill="currentColor" d="M1883 0c0,0 -1883,3867 -1883,3867 0,59 574,1120 583,1120 -1,-1 2566,-1700 2567,-1703 16,-16 -1537,2 -1557,-18 18,0 901,-1903 901,-1903 0,0 1912,3751 1912,3751 0,0 647,-1211 647,-1211 0,0 -1912,-3896 -1912,-3896 0,0 -1258,-7 -1258,-7z"/>
  <path fill="currentColor" fill-rule="nonzero" d="M7354 2513c-98,-86 -191,-149 -282,-189 -90,-39 -185,-59 -285,-59 -199,0 -358,65 -475,197 -118,132 -176,310 -176,536 0,218 61,392 183,522 123,130 286,195 493,195 102,0 198,-21 287,-61 90,-41 175,-103 255,-188l0 871c-120,68 -240,118 -361,150 -120,31 -244,48 -372,48 -438,0 -793,-141 -1065,-422 -272,-281 -408,-652 -408,-1110 0,-446 139,-810 416,-1093 278,-283 633,-425 1068,-425 145,0 276,14 392,42 117,28 227,74 330,136l0 850z"/>
  <path id="_1" fill="currentColor" fill-rule="nonzero" d="M7972 4425l0 -4372 988 0 0 1534c0,101 -3,195 -9,282 -5,87 -13,165 -25,234 126,-213 275,-369 445,-469 171,-99 376,-149 611,-149 185,0 349,30 492,89 144,59 261,144 351,256 76,95 129,212 160,349 32,138 49,343 49,615l0 1631 -1005 0 0 -1526c0,-228 -38,-393 -112,-497 -74,-103 -193,-155 -356,-155 -209,0 -361,77 -457,231 -96,154 -144,405 -144,751l0 1196 -988 0z"/>
  <path id="_2" fill="currentColor" fill-rule="nonzero" d="M13914 2998c0,-222 -59,-397 -177,-527 -119,-130 -280,-195 -485,-195 -206,0 -366,65 -484,194 -117,128 -176,305 -176,528 0,222 59,397 177,525 119,128 280,192 483,192 205,0 366,-64 485,-192 118,-128 177,-303 177,-525zm885 -1421l0 2848 -925 0 0 -462c-131,197 -279,342 -443,434 -165,92 -358,138 -580,138 -380,0 -683,-139 -911,-416 -228,-277 -341,-650 -341,-1116 0,-465 119,-834 357,-1108 238,-273 557,-410 960,-410 214,0 399,46 554,138 155,91 288,232 399,422l0 -468 930 0z"/>
  <path id="_3" fill="currentColor" fill-rule="nonzero" d="M15533 688c0,-152 54,-281 163,-388 108,-107 238,-161 391,-161 158,0 289,53 395,158 107,105 160,235 160,391 0,156 -54,288 -163,397 -107,108 -238,163 -392,163 -151,0 -281,-56 -390,-166 -109,-111 -164,-242 -164,-394zm52 3737l0 -2848 1005 0 0 2848 -1005 0z"/>
  <path id="_4" fill="currentColor" fill-rule="nonzero" d="M19529 2998c0,-222 -59,-397 -177,-527 -118,-130 -280,-195 -485,-195 -205,0 -366,65 -483,194 -118,128 -177,305 -177,528 0,222 59,397 177,525 119,128 280,192 483,192 205,0 367,-64 485,-192 118,-128 177,-303 177,-525zm885 -1421l0 2848 -924 0 0 -462c-132,197 -280,342 -444,434 -165,92 -358,138 -580,138 -380,0 -683,-139 -911,-416 -227,-277 -341,-650 -341,-1116 0,-465 119,-834 357,-1108 238,-273 557,-410 960,-410 214,0 399,46 554,138 155,91 288,232 399,422l0 -468 930 0z"/>
  <polygon id="_5" fill="currentColor" fill-rule="nonzero" points="23049,4425 23049,295 24175,295 24175,3460 25573,3460 25573,4425 "/>
  <path id="_6" fill="currentColor" fill-rule="nonzero" d="M28224 2998c0,-222 -59,-397 -177,-527 -119,-130 -280,-195 -485,-195 -206,0 -366,65 -484,194 -117,128 -176,305 -176,528 0,222 59,397 177,525 119,128 279,192 483,192 205,0 366,-64 485,-192 118,-128 177,-303 177,-525zm884 -1421l0 2848 -924 0 0 -462c-132,197 -279,342 -443,434 -165,92 -358,138 -580,138 -380,0 -683,-139 -912,-416 -227,-277 -340,-650 -340,-1116 0,-465 119,-834 357,-1108 238,-273 557,-410 960,-410 214,0 399,46 554,138 155,91 288,232 399,422l0 -468 929 0z"/>
  <path id="_7" fill="currentColor" fill-rule="nonzero" d="M30763 3004c0,221 58,397 174,525 115,128 275,191 478,191 205,0 366,-63 482,-190 117,-127 176,-303 176,-526 0,-221 -59,-397 -177,-525 -117,-128 -278,-191 -481,-191 -203,0 -363,63 -478,191 -116,128 -174,304 -174,525zm-891 -2951l959 0 0 1489c0,120 -2,220 -7,300 -5,81 -12,150 -21,208 116,-203 250,-348 401,-435 151,-87 349,-130 591,-130 380,0 688,140 923,419 236,279 354,646 354,1099 0,468 -119,840 -356,1117 -238,276 -557,415 -955,415 -196,0 -373,-48 -533,-143 -160,-94 -303,-238 -431,-429l0 462 -925 0 0 -4372z"/>
  <path id="_8" fill="currentColor" fill-rule="nonzero" d="M33413 4188l209 -768c148,128 308,226 485,295 176,69 353,103 531,103 126,0 222,-20 288,-60 66,-41 99,-99 99,-176 0,-126 -133,-221 -398,-283 -87,-21 -157,-39 -209,-53 -302,-83 -519,-192 -656,-327 -136,-133 -204,-309 -204,-522 0,-278 104,-498 312,-664 208,-165 489,-248 844,-248 183,0 369,21 557,63 189,43 383,108 580,197l-209 693c-133,-90 -269,-160 -406,-207 -138,-47 -275,-70 -412,-70 -115,0 -201,18 -260,54 -59,35 -88,87 -88,155 0,101 132,186 396,257 61,16 106,29 136,36 347,99 589,217 725,351 136,134 205,316 205,545 0,291 -112,527 -336,706 -224,180 -520,270 -888,270 -250,0 -482,-29 -697,-86 -215,-58 -416,-144 -604,-261z"/>
  <path id="_9" fill="currentColor" fill-rule="nonzero" d="M36439 3963c0,-160 54,-294 163,-403 108,-108 242,-163 402,-163 164,0 300,55 409,163 109,109 164,243 164,403 0,160 -55,294 -165,405 -110,111 -246,167 -408,167 -159,0 -291,-56 -401,-167 -109,-111 -164,-245 -164,-405z"/>
 </g>
</svg>
